<?xml version="1.0" encoding="UTF-8" standalone="no"?>
<svg width="170px" height="46px" viewBox="0 0 170 46" version="1.1" xmlns="http://www.w3.org/2000/svg" xmlns:xlink="http://www.w3.org/1999/xlink" preserveAspectRatio="xMidYMid">
    <g>
        <rect fill="#4E2817" x="0" y="0" width="170" height="46" rx="4"></rect>
        <g transform="translate(10.000000, 20.460836)">
            <path d="M29.938,19.406 C27.815,19.406 25.898,19.173 24.19,17.464 L26.39,15.264 C27.504,16.376 28.955,16.532 29.99,16.532 C31.155,16.532 32.372,16.144 32.372,15.134 C32.372,14.461 32.009,13.994 30.948,13.891 L28.824,13.691 C26.39,13.461 24.889,12.401 24.889,9.911 C24.889,7.121 27.349,5.611 30.089,5.611 C32.189,5.611 33.949,5.981 35.239,7.191 L33.169,9.291 C32.389,8.591 31.199,8.391 30.029,8.391 C28.679,8.391 28.109,9.011 28.109,9.691 C28.109,10.191 28.309,10.761 29.509,10.861 L31.629,11.071 C34.299,11.331 35.639,12.761 35.639,15.031 C35.639,18.011 33.099,19.431 29.909,19.431 L29.938,19.406 Z M41.538,19.25 C38.792,19.25 37.628,17.31 37.628,15.393 L37.628,8.713 L36.203,8.713 L36.203,6.15 L37.627,6.15 L37.627,2.16 L40.993,2.16 L40.993,6.15 L43.375,6.15 L43.375,8.712 L40.993,8.712 L40.993,15.186 C40.993,15.963 41.356,16.403 42.158,16.403 L43.375,16.403 L43.375,19.251 L41.537,19.251 L41.538,19.25 Z M44.87,3.455 L44.87,0.71 L48.315,0.71 L48.315,3.455 L44.87,3.455 L44.87,3.455 Z M44.923,19.251 L44.923,5.76 L48.289,5.76 L48.289,19.25 L44.919,19.25 L44.923,19.251 Z M55.896,19.411 C53.203,19.411 49.863,17.961 49.863,12.501 C49.863,7.041 53.203,5.611 55.896,5.611 C57.76,5.611 59.158,6.181 60.35,7.431 L58.072,9.711 C57.372,8.961 56.777,8.651 55.897,8.651 C55.094,8.651 54.473,8.941 53.981,9.531 C53.471,10.181 53.231,11.091 53.231,12.511 C53.231,13.931 53.471,14.871 53.981,15.521 C54.481,16.121 55.101,16.401 55.901,16.401 C56.781,16.401 57.381,16.091 58.081,15.341 L60.361,17.591 C59.171,18.831 57.771,19.431 55.911,19.431 L55.896,19.411 Z M69.636,19.261 L66.323,13.651 L64.9,15.251 L64.9,19.271 L61.53,19.271 L61.53,0.82 L64.9,0.82 L64.9,11.28 L69.38,5.763 L73.443,5.763 L68.627,11.203 L73.807,19.263 L69.637,19.263 L69.636,19.261 Z M76.616,13.571 C76.616,15.311 77.676,16.581 79.569,16.581 C81.039,16.581 81.769,16.171 82.619,15.311 L84.659,17.311 C83.279,18.681 81.959,19.441 79.529,19.441 C76.339,19.441 73.289,17.991 73.289,12.531 C73.289,8.131 75.669,5.641 79.159,5.641 C82.909,5.641 85.029,8.391 85.029,12.091 L85.029,13.601 L76.6,13.601 L76.616,13.571 Z M81.432,9.821 C81.07,9.021 80.319,8.421 79.18,8.421 C78.04,8.421 77.29,9.021 76.927,9.821 C76.72,10.321 76.642,10.681 76.617,11.271 L81.742,11.271 C81.717,10.681 81.64,10.321 81.432,9.821 L81.432,9.821 Z M93.985,9.461 C93.467,8.951 93.027,8.661 92.199,8.661 C91.159,8.661 90.019,9.441 90.019,11.151 L90.019,19.281 L86.649,19.281 L86.649,5.76 L89.939,5.76 L89.939,7.055 C90.579,6.278 91.879,5.605 93.329,5.605 C94.649,5.605 95.579,5.941 96.509,6.875 L93.969,9.437 L93.985,9.461 Z" fill="#FFFFFF"></path>
            <path d="M111.65,5.605 C109.967,5.605 108.75,6.123 107.61,7.315 C106.756,6.149 105.54,5.605 104.037,5.605 C102.794,5.605 101.551,6.097 100.671,7.003 L100.671,5.76 L97.391,5.76 L97.391,19.25 L100.761,19.25 L100.761,11.094 C100.761,9.254 101.951,8.634 103.011,8.634 C104.081,8.634 105.241,9.254 105.241,11.094 L105.241,19.25 L108.611,19.25 L108.611,11.016 C108.611,9.256 109.831,8.634 110.861,8.634 C111.921,8.634 113.091,9.254 113.091,11.094 L113.091,19.25 L116.461,19.25 L116.461,10.628 C116.461,9.152 116.071,7.883 114.981,6.796 C114.231,6.046 113.021,5.606 111.671,5.606 L111.65,5.605 Z M126.28,13.917 C126.28,15.755 125.09,16.377 124.028,16.377 C122.968,16.377 121.801,15.755 121.801,13.917 L121.801,5.76 L118.441,5.76 L118.441,14.383 C118.441,15.858 118.731,17.127 119.811,18.215 C120.561,18.965 121.651,19.405 123.001,19.405 C124.251,19.405 125.491,18.94 126.371,18.008 L126.371,19.251 L129.661,19.251 L129.661,5.76 L126.301,5.76 L126.301,13.917 L126.28,13.917 Z M135.156,15.187 L135.156,0.813 L131.79,0.813 L131.79,15.39 C131.79,17.307 132.955,19.25 135.725,19.25 L137.641,19.25 L137.641,16.4 L136.351,16.4 C135.501,16.4 135.161,15.987 135.161,15.185 L135.156,15.187 Z M150,12.05 C150,8.347 147.877,5.603 144.122,5.603 C140.626,5.603 138.244,8.089 138.244,12.491 C138.244,17.961 141.299,19.411 144.484,19.411 C146.918,19.411 148.239,18.661 149.611,17.291 L147.571,15.301 C146.721,16.161 145.991,16.571 144.521,16.571 C142.631,16.571 141.571,15.301 141.571,13.571 L150,13.571 L150,12.061 L150,12.05 Z M141.56,11.247 C141.585,10.65 141.662,10.287 141.87,9.797 C142.232,8.992 142.983,8.397 144.122,8.397 C145.262,8.397 146.012,8.992 146.374,9.797 C146.582,10.287 146.659,10.649 146.684,11.247 L141.559,11.247 L141.56,11.247 Z" fill="#F26922"></path>
            <path d="M13.82,20.744 C13.625,20.837 13.36,20.816 13.087,20.824 C12.852,20.831 12.522,20.836 12.385,20.714 C12.31,20.649 12.289,20.507 12.285,20.424 C12.278,20.324 12.303,20.204 12.325,20.092 C12.349,19.962 12.375,19.792 12.325,19.722 C12.265,19.637 12.055,19.672 11.943,19.61 C11.825,19.544 11.791,19.386 11.753,19.21 C11.74,19.153 11.707,19.102 11.703,19.058 C11.669,18.788 11.76,18.424 11.823,18.145 C11.889,17.85 11.975,17.575 12.023,17.302 C12.097,16.889 12.123,16.422 12.093,15.997 C12.08,15.777 12.05,15.601 12.083,15.417 C12.116,15.242 12.189,15.097 12.223,14.924 C12.235,14.869 12.226,14.804 12.233,14.744 C12.241,14.69 12.273,14.647 12.273,14.604 C12.28,14.488 12.243,14.346 12.233,14.202 C12.21,13.815 12.24,13.269 12.265,12.938 C12.273,12.822 12.327,12.69 12.245,12.638 C11.842,12.631 11.475,12.708 11.1,12.758 C10.09,12.888 8.822,12.904 7.85,12.708 C7.757,12.688 7.664,12.688 7.578,12.668 C6.888,12.508 6.252,12.213 5.761,11.825 C5.691,11.765 5.601,11.701 5.511,11.635 C5.431,11.569 5.341,11.48 5.261,11.443 C4.871,11.26 4.351,11.471 4.191,11.723 C4.131,11.825 4.081,11.955 4.021,12.075 C3.961,12.19 3.911,12.311 3.861,12.425 C3.601,13.019 3.311,13.585 3.051,14.182 C2.901,14.526 2.731,14.909 2.621,15.296 C2.381,16.116 2.611,17.214 2.791,17.986 C2.811,18.056 2.851,18.126 2.871,18.206 C2.931,18.392 3.061,18.64 3.201,18.766 C3.281,18.833 3.411,18.873 3.491,18.948 C3.601,19.04 3.681,19.223 3.761,19.378 C3.801,19.444 3.851,19.518 3.891,19.598 C3.991,19.772 4.031,19.928 3.831,20.031 C3.691,20.111 3.471,20.131 3.261,20.141 C3.171,20.171 3.201,20.291 3.141,20.361 C3.111,20.401 2.971,20.451 2.901,20.471 C2.631,20.551 2.181,20.551 1.971,20.471 C1.871,20.441 1.751,20.361 1.721,20.271 C1.671,20.111 1.801,19.901 1.681,19.771 C1.631,19.721 1.521,19.731 1.421,19.681 C1.281,19.621 1.151,19.491 1.081,19.321 C0.921,18.921 1.021,18.281 1.001,17.791 C1.001,17.651 0.981,17.491 0.971,17.331 C0.961,17.041 0.891,16.751 0.861,16.461 C0.851,16.321 0.801,16.201 0.771,16.071 C0.731,15.871 0.691,15.641 0.631,15.431 C0.571,15.201 0.561,14.981 0.641,14.781 C0.661,14.731 0.721,14.681 0.751,14.601 C0.801,14.491 0.821,14.351 0.811,14.251 C0.781,14.201 0.641,14.241 0.601,14.181 C0.521,13.551 0.421,12.911 0.371,12.251 C0.351,12.031 0.351,11.801 0.331,11.571 C0.291,11.121 0.321,10.651 0.281,10.221 C0.261,10.011 0.211,9.811 0.181,9.601 C0.1,9 -0.06,8.25 0.06,7.65 C0.14,7.26 0.278,6.942 0.5,6.655 C0.66,6.455 0.83,6.265 1.01,6.085 C1.19,5.915 1.39,5.745 1.6,5.595 C1.74,5.495 1.88,5.381 2.03,5.311 C2.37,5.151 2.81,5.021 3.27,5.001 C3.73,4.981 4.258,4.971 4.717,5.061 C5.157,5.141 5.593,5.211 6.023,5.301 C6.443,5.381 6.859,5.501 7.258,5.601 C7.308,5.611 7.354,5.641 7.408,5.661 C7.535,5.691 7.678,5.701 7.818,5.741 C8.188,5.841 8.678,5.891 9.136,5.891 C9.631,5.891 10.076,5.881 10.483,5.781 C10.543,5.761 10.583,5.731 10.653,5.711 C10.713,5.681 10.793,5.691 10.853,5.671 C10.893,5.651 10.933,5.611 10.983,5.591 C11.213,5.481 11.413,5.361 11.623,5.221 C11.785,5.101 11.923,5.001 12.143,4.921 C12.243,4.891 12.338,4.831 12.433,4.801 C12.643,4.741 12.867,4.681 13.026,4.571 C13.276,4.411 13.463,4.181 13.671,4.001 C13.891,3.811 14.111,3.631 14.331,3.451 C14.801,3.091 15.261,2.751 15.701,2.401 C15.921,2.221 16.171,2.061 16.431,1.911 C16.941,1.621 17.451,1.281 18.181,1.231 C18.471,1.211 18.771,1.201 19.061,1.241 C19.141,1.251 19.251,1.301 19.321,1.281 C19.401,1.261 19.461,1.141 19.511,1.051 C19.621,0.861 19.701,0.731 19.791,0.501 C19.851,0.361 19.821,0.211 19.971,0.221 C20.121,0.231 20.091,0.611 20.101,0.751 C20.111,0.931 20.081,1.161 20.111,1.281 C20.131,1.371 20.241,1.491 20.361,1.491 C20.441,1.491 20.501,1.431 20.571,1.381 C20.651,1.341 20.721,1.311 20.771,1.271 C20.891,1.181 21.031,1.041 21.151,0.911 C21.251,0.811 21.411,0.571 21.581,0.591 C21.871,0.621 21.581,1.051 21.521,1.181 C21.371,1.511 21.231,1.761 21.061,2.071 C20.991,2.191 20.831,2.371 20.831,2.501 C20.831,2.591 20.911,2.651 20.951,2.751 C20.971,2.796 20.981,2.841 21.001,2.891 C21.101,3.121 21.181,3.441 21.251,3.701 C21.321,3.927 21.371,4.161 21.461,4.381 C21.541,4.601 21.661,4.801 21.741,5.017 C21.771,5.077 21.771,5.144 21.791,5.197 C21.981,5.667 22.151,6.204 22.371,6.657 C22.461,6.842 22.591,7.067 22.581,7.342 C22.581,7.642 22.431,7.782 22.291,8.002 C22.221,8.122 22.121,8.299 22.011,8.332 C21.931,8.362 21.841,8.332 21.761,8.342 C21.651,8.362 21.571,8.432 21.471,8.442 C21.201,8.472 20.961,8.262 20.881,8.062 C20.861,7.992 20.871,7.902 20.851,7.822 C20.791,7.495 20.631,7.338 20.401,7.132 C20.261,6.996 20.141,6.892 19.961,6.798 C19.701,6.666 19.421,6.584 19.151,6.438 C19.051,6.384 18.928,6.331 18.841,6.348 C18.698,6.375 18.551,6.611 18.441,6.758 C17.737,7.692 17.111,8.651 16.417,9.568 C15.957,10.175 15.467,10.791 15.102,11.485 C15.012,11.663 14.952,11.865 14.882,12.065 C14.812,12.265 14.772,12.485 14.702,12.705 C14.432,13.465 14.352,14.395 14.112,15.195 C14.082,15.275 14.072,15.375 14.052,15.465 C13.942,15.875 13.822,16.335 13.702,16.775 C13.602,17.095 13.572,17.535 13.555,17.96 C13.545,18.357 13.525,18.923 13.665,19.175 C13.745,19.305 14.015,19.355 14.122,19.495 C14.192,19.59 14.242,19.779 14.312,19.905 C14.362,19.995 14.502,20.18 14.492,20.315 C14.482,20.418 14.402,20.49 14.322,20.525 C14.242,20.568 14.112,20.545 14.032,20.585 C13.942,20.635 13.982,20.745 13.892,20.805 L13.82,20.744 Z" fill="#FFFFFF"></path>
        </g>
        <path d="M22.87,12.9135551 C23.1500014,12.9135551 23.3979989,12.8895553 23.614,12.8415551 C23.8300011,12.7935548 24.033999,12.7295555 24.226,12.6495551 L24.226,11.3235551 L23.362,11.3235551 C23.2339994,11.3235551 23.1340004,11.2895554 23.062,11.2215551 C22.9899996,11.1535547 22.954,11.0675556 22.954,10.9635551 L22.954,9.84755506 L26.062,9.84755506 L26.062,13.5375551 C25.8379989,13.7015559 25.6050012,13.8425545 25.363,13.9605551 C25.1209988,14.0785557 24.8630014,14.1755547 24.589,14.2515551 C24.3149986,14.3275554 24.0230015,14.3835549 23.713,14.4195551 C23.4029984,14.4555552 23.0700018,14.4735551 22.714,14.4735551 C22.0739968,14.4735551 21.4820027,14.3605562 20.938,14.1345551 C20.3939973,13.9085539 19.923002,13.5965571 19.525,13.1985551 C19.126998,12.8005531 18.8150011,12.3285578 18.589,11.7825551 C18.3629989,11.2365523 18.25,10.6435583 18.25,10.0035551 C18.25,9.3515518 18.3579989,8.75255779 18.574,8.20655506 C18.7900011,7.66055233 19.098998,7.18955704 19.501,6.79355506 C19.903002,6.39755308 20.3889971,6.08955616 20.959,5.86955506 C21.5290028,5.64955396 22.1659965,5.53955506 22.87,5.53955506 C23.2340018,5.53955506 23.5759984,5.56955476 23.896,5.62955506 C24.2160016,5.68955536 24.5109986,5.77155454 24.781,5.87555506 C25.0510013,5.97955558 25.2979989,6.10355434 25.522,6.24755506 C25.7460011,6.39155578 25.9459991,6.54755422 26.122,6.71555506 L25.534,7.60955506 C25.4779997,7.69355548 25.4110004,7.75955482 25.333,7.80755506 C25.2549996,7.8555553 25.1700005,7.87955506 25.078,7.87955506 C24.9579994,7.87955506 24.8340006,7.83955546 24.706,7.75955506 C24.5459992,7.66355458 24.3950007,7.58055541 24.253,7.51055506 C24.1109993,7.44055471 23.9660007,7.38355528 23.818,7.33955506 C23.6699993,7.29555484 23.5140008,7.26355516 23.35,7.24355506 C23.1859992,7.22355496 23.002001,7.21355506 22.798,7.21355506 C22.4179981,7.21355506 22.0760015,7.28055439 21.772,7.41455506 C21.4679985,7.54855573 21.2090011,7.73755384 20.995,7.98155506 C20.7809989,8.22555628 20.6160006,8.51855335 20.5,8.86055506 C20.3839994,9.20255677 20.326,9.58355296 20.326,10.0035551 C20.326,10.4675574 20.3899994,10.8795533 20.518,11.2395551 C20.6460006,11.5995569 20.8229989,11.9035538 21.049,12.1515551 C21.2750011,12.3995563 21.5429984,12.5885544 21.853,12.7185551 C22.1630015,12.8485557 22.5019982,12.9135551 22.87,12.9135551 L22.87,12.9135551 Z M32.926,5.63555506 L32.926,7.19555506 L29.338,7.19555506 L29.338,9.23555506 L32.086,9.23555506 L32.086,10.7355551 L29.338,10.7355551 L29.338,12.8175551 L32.926,12.8175551 L32.926,14.3775551 L27.298,14.3775551 L27.298,5.63555506 L32.926,5.63555506 Z M40.426,5.63555506 L40.426,7.24355506 L37.966,7.24355506 L37.966,14.3775551 L35.938,14.3775551 L35.938,7.24355506 L33.478,7.24355506 L33.478,5.63555506 L40.426,5.63555506 Z M47.938,11.0535551 L47.938,14.3775551 L45.91,14.3775551 L45.91,11.0535551 L42.742,5.63555506 L44.53,5.63555506 C44.7060009,5.63555506 44.8459995,5.67655465 44.95,5.75855506 C45.0540005,5.84055547 45.1379997,5.94555442 45.202,6.07355506 L46.438,8.61755506 C46.5380005,8.82155608 46.6299996,9.0095542 46.714,9.18155506 C46.7980004,9.35355592 46.8719997,9.52355422 46.936,9.69155506 C46.9960003,9.5195542 47.0679996,9.34755592 47.152,9.17555506 C47.2360004,9.0035542 47.3259995,8.81755606 47.422,8.61755506 L48.646,6.07355506 C48.6700001,6.0215548 48.7029998,5.96955532 48.745,5.91755506 C48.7870002,5.8655548 48.8349997,5.81855527 48.889,5.77655506 C48.9430003,5.73455485 49.0049996,5.70055519 49.075,5.67455506 C49.1450003,5.64855493 49.2219996,5.63555506 49.306,5.63555506 L51.106,5.63555506 L47.938,11.0535551 Z M59.854,10.0035551 C59.854,10.6355582 59.7450011,11.2235523 59.527,11.7675551 C59.3089989,12.3115578 59.002002,12.7845531 58.606,13.1865551 C58.209998,13.5885571 57.7330028,13.9035539 57.175,14.1315551 C56.6169972,14.3595562 55.9980034,14.4735551 55.318,14.4735551 C54.6379966,14.4735551 54.0180028,14.3595562 53.458,14.1315551 C52.8979972,13.9035539 52.419002,13.5885571 52.021,13.1865551 C51.622998,12.7845531 51.3150011,12.3115578 51.097,11.7675551 C50.8789989,11.2235523 50.77,10.6355582 50.77,10.0035551 C50.77,9.3715519 50.8789989,8.78355778 51.097,8.23955506 C51.3150011,7.69555234 51.622998,7.22355706 52.021,6.82355506 C52.419002,6.42355306 52.8979972,6.1095562 53.458,5.88155506 C54.0180028,5.65355392 54.6379966,5.53955506 55.318,5.53955506 C55.9980034,5.53955506 56.6169972,5.65455391 57.175,5.88455506 C57.7330028,6.11455621 58.209998,6.42955306 58.606,6.82955506 C59.002002,7.22955706 59.3089989,7.70155234 59.527,8.24555506 C59.7450011,8.78955778 59.854,9.37555192 59.854,10.0035551 L59.854,10.0035551 Z M57.778,10.0035551 C57.778,9.5715529 57.7220006,9.18255679 57.61,8.83655506 C57.4979994,8.49055333 57.337001,8.19755626 57.127,7.95755506 C56.9169989,7.71755386 56.6600015,7.5335557 56.356,7.40555506 C56.0519985,7.27755442 55.7060019,7.21355506 55.318,7.21355506 C54.925998,7.21355506 54.5770015,7.27755442 54.271,7.40555506 C53.9649985,7.5335557 53.707001,7.71755386 53.497,7.95755506 C53.2869989,8.19755626 53.1260006,8.49055333 53.014,8.83655506 C52.9019994,9.18255679 52.846,9.5715529 52.846,10.0035551 C52.846,10.4395572 52.9019994,10.8305533 53.014,11.1765551 C53.1260006,11.5225568 53.2869989,11.8155539 53.497,12.0555551 C53.707001,12.2955563 53.9649985,12.4785544 54.271,12.6045551 C54.5770015,12.7305557 54.925998,12.7935551 55.318,12.7935551 C55.7060019,12.7935551 56.0519985,12.7305557 56.356,12.6045551 C56.6600015,12.4785544 56.9169989,12.2955563 57.127,12.0555551 C57.337001,11.8155539 57.4979994,11.5225568 57.61,11.1765551 C57.7220006,10.8305533 57.778,10.4395572 57.778,10.0035551 L57.778,10.0035551 Z M64.462,12.7755551 C64.7340014,12.7755551 64.9769989,12.7305555 65.191,12.6405551 C65.4050011,12.5505546 65.5859993,12.4215559 65.734,12.2535551 C65.8820007,12.0855542 65.9949996,11.8805563 66.073,11.6385551 C66.1510004,11.3965539 66.19,11.1215566 66.19,10.8135551 L66.19,5.63555506 L68.218,5.63555506 L68.218,10.8135551 C68.218,11.3495577 68.1310009,11.8415528 67.957,12.2895551 C67.7829991,12.7375573 67.5340016,13.1235534 67.21,13.4475551 C66.8859984,13.7715567 66.4920023,14.0235542 66.028,14.2035551 C65.5639977,14.383556 65.0420029,14.4735551 64.462,14.4735551 C63.8779971,14.4735551 63.3540023,14.383556 62.89,14.2035551 C62.4259977,14.0235542 62.0320016,13.7715567 61.708,13.4475551 C61.3839984,13.1235534 61.1360009,12.7375573 60.964,12.2895551 C60.7919991,11.8415528 60.706,11.3495577 60.706,10.8135551 L60.706,5.63555506 L62.734,5.63555506 L62.734,10.8075551 C62.734,11.1155566 62.7729996,11.3905539 62.851,11.6325551 C62.9290004,11.8745563 63.0419993,12.0805542 63.19,12.2505551 C63.3380007,12.4205559 63.5189989,12.5505546 63.733,12.6405551 C63.9470011,12.7305555 64.1899986,12.7755551 64.462,12.7755551 L64.462,12.7755551 Z M71.566,11.1435551 L71.566,14.3775551 L69.538,14.3775551 L69.538,5.63555506 L72.382,5.63555506 C73.0140032,5.63555506 73.5529978,5.70055441 73.999,5.83055506 C74.4450022,5.96055571 74.8089986,6.1415539 75.091,6.37355506 C75.3730014,6.60555622 75.5779994,6.87955348 75.706,7.19555506 C75.8340006,7.51155664 75.898,7.8555532 75.898,8.22755506 C75.898,8.51155648 75.8600004,8.7795538 75.784,9.03155506 C75.7079996,9.28355632 75.5950007,9.51655399 75.445,9.73055506 C75.2949992,9.94455613 75.1110011,10.1355542 74.893,10.3035551 C74.6749989,10.4715559 74.4240014,10.6095545 74.14,10.7175551 C74.2760007,10.7855554 74.4029994,10.8695546 74.521,10.9695551 C74.6390006,11.0695556 74.7419996,11.1915543 74.83,11.3355551 L76.69,14.3775551 L74.854,14.3775551 C74.5139983,14.3775551 74.2700007,14.2495563 74.122,13.9935551 L72.67,11.4555551 C72.6059997,11.3435545 72.5310004,11.2635553 72.445,11.2155551 C72.3589996,11.1675548 72.2380008,11.1435551 72.082,11.1435551 L71.566,11.1435551 Z M71.566,9.74555506 L72.382,9.74555506 C72.6580014,9.74555506 72.892999,9.71055541 73.087,9.64055506 C73.281001,9.57055471 73.4399994,9.47355568 73.564,9.34955506 C73.6880006,9.22555444 73.7779997,9.08055589 73.834,8.91455506 C73.8900003,8.74855423 73.918,8.56955602 73.918,8.37755506 C73.918,7.99355314 73.7930012,7.69355614 73.543,7.47755506 C73.2929987,7.26155398 72.9060026,7.15355506 72.382,7.15355506 L71.566,7.15355506 L71.566,9.74555506 Z M84.706,7.41155506 C84.6459997,7.50755554 84.5830003,7.57955482 84.517,7.62755506 C84.4509997,7.6755553 84.3660005,7.69955506 84.262,7.69955506 C84.1699995,7.69955506 84.0710005,7.67055535 83.965,7.61255506 C83.8589995,7.55455477 83.7390007,7.48955542 83.605,7.41755506 C83.4709993,7.3455547 83.3180009,7.28055535 83.146,7.22255506 C82.9739991,7.16455477 82.7780011,7.13555506 82.558,7.13555506 C82.1779981,7.13555506 81.8950009,7.21655425 81.709,7.37855506 C81.5229991,7.54055587 81.43,7.75955368 81.43,8.03555506 C81.43,8.21155594 81.4859994,8.35755448 81.598,8.47355506 C81.7100006,8.58955564 81.8569991,8.68955464 82.039,8.77355506 C82.2210009,8.85755548 82.4289988,8.93455471 82.663,9.00455506 C82.8970012,9.07455541 83.1359988,9.15255463 83.38,9.23855506 C83.6240012,9.32455549 83.8629988,9.42555448 84.097,9.54155506 C84.3310012,9.65755564 84.5389991,9.80555416 84.721,9.98555506 C84.9030009,10.165556 85.0499994,10.3845538 85.162,10.6425551 C85.2740006,10.9005564 85.33,11.2115532 85.33,11.5755551 C85.33,11.9795571 85.2600007,12.3575533 85.12,12.7095551 C84.9799993,13.0615568 84.7770013,13.3685538 84.511,13.6305551 C84.2449987,13.8925564 83.9170019,14.0985543 83.527,14.2485551 C83.136998,14.3985558 82.6940025,14.4735551 82.198,14.4735551 C81.9259986,14.4735551 81.6490014,14.4455553 81.367,14.3895551 C81.0849986,14.3335548 80.8120013,14.2545556 80.548,14.1525551 C80.2839987,14.0505546 80.0360012,13.9295558 79.804,13.7895551 C79.5719988,13.6495544 79.3700009,13.4935559 79.198,13.3215551 L79.798,12.3735551 C79.8420002,12.3015547 79.9039996,12.2435553 79.984,12.1995551 C80.0640004,12.1555548 80.1499995,12.1335551 80.242,12.1335551 C80.3620006,12.1335551 80.4829994,12.1715547 80.605,12.2475551 C80.7270006,12.3235554 80.8649992,12.4075546 81.019,12.4995551 C81.1730008,12.5915555 81.349999,12.6755547 81.55,12.7515551 C81.750001,12.8275554 81.9859986,12.8655551 82.258,12.8655551 C82.6260018,12.8655551 82.911999,12.7845559 83.116,12.6225551 C83.320001,12.4605543 83.422,12.2035568 83.422,11.8515551 C83.422,11.647554 83.3660006,11.4815557 83.254,11.3535551 C83.1419994,11.2255544 82.9950009,11.1195555 82.813,11.0355551 C82.6309991,10.9515546 82.4240012,10.8775554 82.192,10.8135551 C81.9599988,10.7495547 81.7220012,10.6785555 81.478,10.6005551 C81.2339988,10.5225547 80.9960012,10.4265556 80.764,10.3125551 C80.5319988,10.1985545 80.3250009,10.048556 80.143,9.86255506 C79.9609991,9.67655413 79.8140006,9.44455645 79.702,9.16655506 C79.5899994,8.88855367 79.534,8.5455571 79.534,8.13755506 C79.534,7.80955342 79.5999993,7.48955662 79.732,7.17755506 C79.8640007,6.8655535 80.0579987,6.58755628 80.314,6.34355506 C80.5700013,6.09955384 80.8839981,5.90455579 81.256,5.75855506 C81.6280019,5.61255433 82.0539976,5.53955506 82.534,5.53955506 C82.8020013,5.53955506 83.0629987,5.56055485 83.317,5.60255506 C83.5710013,5.64455527 83.8119989,5.70655465 84.04,5.78855506 C84.2680011,5.87055547 84.480999,5.96855449 84.679,6.08255506 C84.877001,6.19655563 85.0539992,6.32555434 85.21,6.46955506 L84.706,7.41155506 Z M92.686,5.63555506 L92.686,7.24355506 L90.226,7.24355506 L90.226,14.3775551 L88.198,14.3775551 L88.198,7.24355506 L85.738,7.24355506 L85.738,5.63555506 L92.686,5.63555506 Z M95.746,14.3775551 L93.706,14.3775551 L93.706,5.63555506 L95.746,5.63555506 L95.746,14.3775551 Z M103.24,12.1155551 C103.288,12.1155551 103.336,12.124555 103.384,12.1425551 C103.432,12.1605552 103.478,12.1915548 103.522,12.2355551 L104.326,13.0815551 C103.973998,13.5415574 103.533003,13.8885539 103.003,14.1225551 C102.472997,14.3565562 101.846004,14.4735551 101.122,14.4735551 C100.457997,14.4735551 99.8630026,14.3605562 99.337,14.1345551 C98.8109974,13.9085539 98.3650018,13.5965571 97.999,13.1985551 C97.6329982,12.8005531 97.352001,12.3285578 97.156,11.7825551 C96.959999,11.2365523 96.862,10.6435583 96.862,10.0035551 C96.862,9.3515518 96.9739989,8.75255779 97.198,8.20655506 C97.4220011,7.66055233 97.734998,7.18955704 98.137,6.79355506 C98.539002,6.39755308 99.0199972,6.08955616 99.58,5.86955506 C100.140003,5.64955396 100.757997,5.53955506 101.434,5.53955506 C101.762002,5.53955506 102.070999,5.56855477 102.361,5.62655506 C102.651001,5.68455535 102.921999,5.76455455 103.174,5.86655506 C103.426001,5.96855557 103.657999,6.09055435 103.87,6.23255506 C104.082001,6.37455577 104.269999,6.5315542 104.434,6.70355506 L103.75,7.62155506 C103.706,7.67755534 103.654,7.72855483 103.594,7.77455506 C103.534,7.82055529 103.450001,7.84355506 103.342,7.84355506 C103.27,7.84355506 103.202,7.82755522 103.138,7.79555506 C103.074,7.7635549 103.006,7.72455529 102.934,7.67855506 C102.862,7.63255483 102.783,7.58255533 102.697,7.52855506 C102.611,7.47455479 102.509001,7.42455529 102.391,7.37855506 C102.272999,7.33255483 102.135001,7.29355522 101.977,7.26155506 C101.818999,7.2295549 101.634001,7.21355506 101.422,7.21355506 C101.053998,7.21355506 100.718002,7.27855441 100.414,7.40855506 C100.109998,7.53855571 99.8490011,7.72455385 99.631,7.96655506 C99.4129989,8.20855627 99.2430006,8.50155334 99.121,8.84555506 C98.9989994,9.18955678 98.938,9.57555292 98.938,10.0035551 C98.938,10.4515573 98.9989994,10.8495533 99.121,11.1975551 C99.2430006,11.5455568 99.4089989,11.8385539 99.619,12.0765551 C99.8290011,12.3145563 100.073999,12.4955544 100.354,12.6195551 C100.634001,12.7435557 100.933998,12.8055551 101.254,12.8055551 C101.438001,12.8055551 101.605999,12.7965552 101.758,12.7785551 C101.910001,12.760555 102.050999,12.7295553 102.181,12.6855551 C102.311001,12.6415548 102.434999,12.5845554 102.553,12.5145551 C102.671001,12.4445547 102.789999,12.3575556 102.91,12.2535551 C102.958,12.2135549 103.01,12.1805552 103.066,12.1545551 C103.122,12.1285549 103.18,12.1155551 103.24,12.1155551 L103.24,12.1155551 Z M107.278,9.17555506 L107.602,9.17555506 C107.902002,9.17555506 108.117999,9.081556 108.25,8.89355506 L110.218,6.03755506 C110.326001,5.88155428 110.448999,5.77555534 110.587,5.71955506 C110.725001,5.66355478 110.893999,5.63555506 111.094,5.63555506 L112.858,5.63555506 L110.266,9.16955506 C110.174,9.2975557 110.078001,9.40355464 109.978,9.48755506 C109.878,9.57155548 109.776001,9.64155478 109.672,9.69755506 C109.824001,9.75355534 109.962999,9.83055457 110.089,9.92855506 C110.215001,10.0265556 110.329999,10.1575542 110.434,10.3215551 L113.074,14.3775551 L111.262,14.3775551 C111.145999,14.3775551 111.047,14.3695551 110.965,14.3535551 C110.883,14.337555 110.812,14.3135552 110.752,14.2815551 C110.692,14.2495549 110.64,14.2105553 110.596,14.1645551 C110.552,14.1185548 110.51,14.0655554 110.47,14.0055551 L108.49,10.9635551 C108.418,10.8515545 108.327001,10.7725553 108.217,10.7265551 C108.106999,10.6805548 107.958001,10.6575551 107.77,10.6575551 L107.278,10.6575551 L107.278,14.3775551 L105.25,14.3775551 L105.25,5.63555506 L107.278,5.63555506 L107.278,9.17555506 Z M119.446,5.63555506 L119.446,7.19555506 L115.858,7.19555506 L115.858,9.23555506 L118.606,9.23555506 L118.606,10.7355551 L115.858,10.7355551 L115.858,12.8175551 L119.446,12.8175551 L119.446,14.3775551 L113.818,14.3775551 L113.818,5.63555506 L119.446,5.63555506 Z M122.626,11.1435551 L122.626,14.3775551 L120.598,14.3775551 L120.598,5.63555506 L123.442,5.63555506 C124.074003,5.63555506 124.612998,5.70055441 125.059,5.83055506 C125.505002,5.96055571 125.868999,6.1415539 126.151,6.37355506 C126.433001,6.60555622 126.637999,6.87955348 126.766,7.19555506 C126.894001,7.51155664 126.958,7.8555532 126.958,8.22755506 C126.958,8.51155648 126.92,8.7795538 126.844,9.03155506 C126.768,9.28355632 126.655001,9.51655399 126.505,9.73055506 C126.354999,9.94455613 126.171001,10.1355542 125.953,10.3035551 C125.734999,10.4715559 125.484001,10.6095545 125.2,10.7175551 C125.336001,10.7855554 125.462999,10.8695546 125.581,10.9695551 C125.699001,11.0695556 125.802,11.1915543 125.89,11.3355551 L127.75,14.3775551 L125.914,14.3775551 C125.573998,14.3775551 125.330001,14.2495563 125.182,13.9935551 L123.73,11.4555551 C123.666,11.3435545 123.591,11.2635553 123.505,11.2155551 C123.419,11.1675548 123.298001,11.1435551 123.142,11.1435551 L122.626,11.1435551 Z M122.626,9.74555506 L123.442,9.74555506 C123.718001,9.74555506 123.952999,9.71055541 124.147,9.64055506 C124.341001,9.57055471 124.499999,9.47355568 124.624,9.34955506 C124.748001,9.22555444 124.838,9.08055589 124.894,8.91455506 C124.95,8.74855423 124.978,8.56955602 124.978,8.37755506 C124.978,7.99355314 124.853001,7.69355614 124.603,7.47755506 C124.352999,7.26155398 123.966003,7.15355506 123.442,7.15355506 L122.626,7.15355506 L122.626,9.74555506 Z M133.45,7.41155506 C133.39,7.50755554 133.327,7.57955482 133.261,7.62755506 C133.195,7.6755553 133.110001,7.69955506 133.006,7.69955506 C132.914,7.69955506 132.815001,7.67055535 132.709,7.61255506 C132.602999,7.55455477 132.483001,7.48955542 132.349,7.41755506 C132.214999,7.3455547 132.062001,7.28055535 131.89,7.22255506 C131.717999,7.16455477 131.522001,7.13555506 131.302,7.13555506 C130.921998,7.13555506 130.639001,7.21655425 130.453,7.37855506 C130.266999,7.54055587 130.174,7.75955368 130.174,8.03555506 C130.174,8.21155594 130.229999,8.35755448 130.342,8.47355506 C130.454001,8.58955564 130.600999,8.68955464 130.783,8.77355506 C130.965001,8.85755548 131.172999,8.93455471 131.407,9.00455506 C131.641001,9.07455541 131.879999,9.15255463 132.124,9.23855506 C132.368001,9.32455549 132.606999,9.42555448 132.841,9.54155506 C133.075001,9.65755564 133.282999,9.80555416 133.465,9.98555506 C133.647001,10.165556 133.793999,10.3845538 133.906,10.6425551 C134.018001,10.9005564 134.074,11.2115532 134.074,11.5755551 C134.074,11.9795571 134.004001,12.3575533 133.864,12.7095551 C133.723999,13.0615568 133.521001,13.3685538 133.255,13.6305551 C132.988999,13.8925564 132.661002,14.0985543 132.271,14.2485551 C131.880998,14.3985558 131.438002,14.4735551 130.942,14.4735551 C130.669999,14.4735551 130.393001,14.4455553 130.111,14.3895551 C129.828999,14.3335548 129.556001,14.2545556 129.292,14.1525551 C129.027999,14.0505546 128.780001,13.9295558 128.548,13.7895551 C128.315999,13.6495544 128.114001,13.4935559 127.942,13.3215551 L128.542,12.3735551 C128.586,12.3015547 128.648,12.2435553 128.728,12.1995551 C128.808,12.1555548 128.894,12.1335551 128.986,12.1335551 C129.106001,12.1335551 129.226999,12.1715547 129.349,12.2475551 C129.471001,12.3235554 129.608999,12.4075546 129.763,12.4995551 C129.917001,12.5915555 130.093999,12.6755547 130.294,12.7515551 C130.494001,12.8275554 130.729999,12.8655551 131.002,12.8655551 C131.370002,12.8655551 131.655999,12.7845559 131.86,12.6225551 C132.064001,12.4605543 132.166,12.2035568 132.166,11.8515551 C132.166,11.647554 132.110001,11.4815557 131.998,11.3535551 C131.885999,11.2255544 131.739001,11.1195555 131.557,11.0355551 C131.374999,10.9515546 131.168001,10.8775554 130.936,10.8135551 C130.703999,10.7495547 130.466001,10.6785555 130.222,10.6005551 C129.977999,10.5225547 129.740001,10.4265556 129.508,10.3125551 C129.275999,10.1985545 129.069001,10.048556 128.887,9.86255506 C128.704999,9.67655413 128.558001,9.44455645 128.446,9.16655506 C128.333999,8.88855367 128.278,8.5455571 128.278,8.13755506 C128.278,7.80955342 128.343999,7.48955662 128.476,7.17755506 C128.608001,6.8655535 128.801999,6.58755628 129.058,6.34355506 C129.314001,6.09955384 129.627998,5.90455579 130,5.75855506 C130.372002,5.61255433 130.797998,5.53955506 131.278,5.53955506 C131.546001,5.53955506 131.806999,5.56055485 132.061,5.60255506 C132.315001,5.64455527 132.555999,5.70655465 132.784,5.78855506 C133.012001,5.87055547 133.224999,5.96855449 133.423,6.08255506 C133.621001,6.19655563 133.797999,6.32555434 133.954,6.46955506 L133.45,7.41155506 Z M145.534,14.3775551 L143.962,14.3775551 C143.785999,14.3775551 143.641001,14.3365555 143.527,14.2545551 C143.412999,14.1725547 143.334,14.0675557 143.29,13.9395551 L142.774,12.4155551 L139.45,12.4155551 L138.934,13.9395551 C138.894,14.0515556 138.816001,14.1525546 138.7,14.2425551 C138.583999,14.3325555 138.442001,14.3775551 138.274,14.3775551 L136.69,14.3775551 L140.074,5.63555506 L142.15,5.63555506 L145.534,14.3775551 Z M139.918,11.0355551 L142.306,11.0355551 L141.502,8.64155506 C141.45,8.4895543 141.389,8.31055609 141.319,8.10455506 C141.249,7.89855403 141.18,7.67555626 141.112,7.43555506 C141.048,7.67955628 140.982,7.90555402 140.914,8.11355506 C140.846,8.3215561 140.782,8.5015543 140.722,8.65355506 L139.918,11.0355551 Z M151.63,5.63555506 L151.63,7.24355506 L149.17,7.24355506 L149.17,14.3775551 L147.142,14.3775551 L147.142,7.24355506 L144.682,7.24355506 L144.682,5.63555506 L151.63,5.63555506 Z" fill="#FFFFFF"></path>
    </g>
</svg>
